<?xml version="1.0" encoding="UTF-8" standalone="no"?>
<!-- Created with Inkscape (http://www.inkscape.org/) -->

<svg
   version="1.1"
   id="svg2"
   width="2829.3333"
   height="2829.3333"
   viewBox="0 0 2829.3333 2829.3333"
   sodipodi:docname="6d90f194-62e6-414a-8095-ec9348e109de.eps"
   xmlns:inkscape="http://www.inkscape.org/namespaces/inkscape"
   xmlns:sodipodi="http://sodipodi.sourceforge.net/DTD/sodipodi-0.dtd"
   xmlns="http://www.w3.org/2000/svg"
   xmlns:svg="http://www.w3.org/2000/svg">
  <defs
     id="defs6" />
  <sodipodi:namedview
     id="namedview4"
     pagecolor="#ffffff"
     bordercolor="#000000"
     borderopacity="0.25"
     inkscape:showpageshadow="2"
     inkscape:pageopacity="0.0"
     inkscape:pagecheckerboard="0"
     inkscape:deskcolor="#d1d1d1" />
  <g
     id="g8"
     inkscape:groupmode="layer"
     inkscape:label="ink_ext_XXXXXX"
     transform="matrix(1.3333333,0,0,-1.3333333,0,2829.3333)">
    <g
       id="g10"
       transform="scale(0.1)">
      <path
         d="m 10422.2,19743.1 c -5195.42,0 -9407.69,-4211.7 -9407.69,-9407.7 0,-2867.6 1282.97,-5435.3 3306.27,-7160.6 377.01,-321.7 779.54,-613.8 1204.61,-873.3 14.85,-8.9 29.7,-18.3 45.14,-26.7 63.5,-39.1 127.62,-77.2 192.94,-114 9.15,-5.2 18.52,-10.1 27.69,-15.3 31.78,-18.1 63.99,-35.4 96,-53.1 61.95,-34.3 124.24,-67.9 187.04,-100.8 32.24,-16.8 64.6,-33.5 97.07,-49.9 65.15,-33.1 130.8,-65.3 196.83,-96.8 29.85,-14.3 59.53,-28.9 89.57,-42.8 94.72,-44.1 190.08,-87.1 286.57,-128.1 214.93,-91.5 434.01,-175.2 657.22,-249.9 v -0.6 c 32.67,-11.3 65.32,-22 97.98,-32.1 32.64,-10.7 65.29,-21.4 97.95,-31.5 32.65,-10.6 65.32,-20.8 97.96,-30.3 33.25,-10.6 66.51,-20.7 100.34,-30.2 64.7,-19 130.01,-36.9 195.91,-54 775.37,-207.3 1589.9,-317.701 2430.6,-317.701 912.5,0 1794.1,130.001 2628.3,372.301 68.2,19.6 135.9,40.4 203,61.1 28.5,8.9 57,18.4 85.5,27.9 28.5,8.9 57,18.4 84.9,27.9 293.9,98.6 580.6,211.4 860.3,337.8 48,21.4 95.5,43.4 143.1,65.9 5.1,2.5 10.3,5.1 15.5,7.6 26.3,12.5 52.6,25.2 78.9,38.1 63.2,30.4 125.8,62 188.3,93.9 17,8.7 34.1,17.3 51.1,26.2 65.7,34.1 131.1,68.8 195.7,104.4 v 0.6 l 9.5,5.3 c 496.3,274.3 965.4,591.9 1401.7,948.2 2113,1724.6 3461.9,4350.5 3461.9,7290.5 0,5196 -4211.7,9407.7 -9407.7,9407.7"
         style="fill:#e5e5e3;fill-opacity:1;fill-rule:nonzero;stroke:none"
         id="path12" />
      <path
         d="m 15904.4,4723.8 c -316.5,689.3 -806.9,1274.1 -1542.5,1479.5 -12.4,9.5 -24.9,19 -37.4,27.3 -11.8,8.9 -23.7,17.2 -35.6,25.5 -14.8,10.1 -30.3,20.2 -45.7,29.7 -7.7,5.3 -15.4,10.1 -23.2,14.8 -6.5,4.2 -13,7.8 -19.5,11.3 -9.5,5.4 -19,10.7 -28.5,16.1 -15.8,8.3 -31.8,16.7 -47.8,25 -9.2,4.7 -18.5,9.3 -27.8,13.9 -13.3,6.5 -26.7,13.1 -40.2,19.2 -13.7,7.2 -28.5,13.7 -42.8,19.6 -3.1,1.2 -6.2,2.6 -9.3,3.9 -3.7,1.6 -7.5,3.2 -11.2,4.7 -6.8,3 -13.6,5.9 -20.4,8.7 -10.1,4.7 -20.8,8.8 -30.9,12.4 -13.7,5.4 -27.3,10.7 -41,15.4 l -5.2,1.7 c -17.7,6.4 -35.6,12.4 -53.5,18.5 -6.4,2.1 -12.6,4.5 -19,6.6 -20.2,7.1 -40.4,13.6 -60.6,20.2 -239.3,73 -495.7,117.5 -750.4,157.9 -126.5,19.6 -253.5,38.6 -377,59.9 -175.8,30.3 -357.4,73.7 -532,133.1 -400.7,135.9 -763.5,355 -927.9,685.1 0,0 0,0 -0.1,0 l 0.2,0.2 c -33.3,65.9 -58.2,135.9 -74.2,210.7 -0.7,3.1 -1.1,6.1 -1.7,9.2 -3.4,17.1 -6.3,34.4 -8.9,51.8 -2.8,19.2 -5.3,38.4 -7.4,57.8 -0.8,7.6 -1.6,15.2 -2.3,22.8 -0.4,3.3 -0.7,6.6 -1,9.9 -1.2,15.1 -2.7,29.7 -3.8,44.8 0,0.4 0,0.9 -0.1,1.3 645.4,250.3 1135.3,726 1459.3,1327.5 57.5,24.2 109,51.2 148.8,77.4 383,252 705.3,679.2 967.7,1048.3 4.3,6 8.2,12.2 12.5,18.2 34.8,18.9 69.3,38.8 103.5,59.5 282.7,171.4 539.2,395.3 668.6,525.5 436,439 585,1016.5 434.5,1614.9 -21.2,84.2 -51.1,171 -94.4,246.7 221.5,890.3 256.4,1822.3 -38.7,2682.7 -188.5,549.6 -562.7,1091.3 -1106.7,1264.6 -167.2,130.9 -361.4,229.9 -571.3,253.7 -22.6,2.5 -45.5,3.7 -68.3,4.3 -37.7,112.4 -86.8,227.9 -146.2,341.9 v 0.6 c -286.1,548.6 -802,1059.1 -1347.1,995.6 -299.8,-35 -555.6,-239.3 -851.9,-297.4 -320.6,-63 -646.54,51 -971.87,86 -793.77,84.4 -1617.81,-356.8 -1987.69,-1063.9 -140.71,-268.3 -217.89,-564.6 -301.6,-856.1 -143.67,-499.3 -309.31,-996.2 -567.56,-1446.8 -257.67,-450.6 -614.48,-855.5 -1070.43,-1104.3 52.84,-65.3 110.43,-125.2 172.18,-181.1 307.7,-277.5 717.32,-433.7 1138.51,-481.1 7.06,-132.5 33.92,-267.9 74.59,-397.6 -126.77,50.1 -261.24,71.1 -401.05,50.4 -240.68,-35.6 -458.21,-196.9 -558.84,-414.4 -238.78,-516 160.6,-1131.7 540.87,-1472.8 238.82,-214.2 597.23,-387.3 919.39,-305.2 22.73,-292.1 54.31,-596 108.45,-890.7 107.21,-583.5 302.54,-1130.7 691.28,-1477.7 267.57,-238.9 591.79,-371 935.66,-426.9 -4.63,-19.9 -9.35,-39.7 -15.23,-58.9 -0.91,-3 -1.93,-5.9 -2.87,-8.8 -3.64,-11.4 -8.17,-22.4 -12.25,-33.6 -6.13,-16.8 -12.28,-33.7 -19.39,-50 -7.37,-16.9 -15.39,-33.5 -23.77,-49.9 -5.02,-9.8 -10.21,-19.6 -15.6,-29.2 -7.64,-13.7 -15.66,-27.1 -23.98,-40.4 -4.8,-7.6 -9.4,-15.4 -14.42,-22.9 -2.6,-3.9 -5.56,-7.6 -8.21,-11.5 -14.07,-20.4 -28.74,-40.5 -44.39,-60 -1.31,-1.6 -2.75,-3.2 -4.07,-4.8 -20.93,-25.7 -43.33,-50.5 -66.81,-74.6 -4.44,-4.5 -8.86,-9.1 -13.38,-13.6 -27.26,-26.8 -55.66,-52.9 -85.41,-77.7 -114.6,-95 -249.36,-174.5 -394.21,-241.6 -243.43,-111.6 -517.71,-186.4 -778.34,-231 -219.66,-37.4 -447.65,-68.8 -670.89,-111 -99.74,-18.4 -198.27,-38.6 -294.47,-63.5 -21.36,-5.3 -42.73,-11.3 -63.51,-17.2 l -3.58,-0.6 c -3.75,-1.2 -7.52,-2.3 -11.3,-3.4 -15.23,-4.2 -30.28,-8.8 -45.37,-13.2 h -0.92 c -6.95,-2 -13.7,-4.3 -20.61,-6.4 -12.74,-3.8 -25.45,-7.7 -38.09,-11.7 -18.66,-6 -37.2,-12.1 -55.61,-18.4 -19.43,-6.7 -38.58,-13.7 -57.72,-20.8 -2.99,-1.2 -6.07,-2.1 -9.04,-3.3 -1.5,-0.5 -2.92,-1.1 -4.41,-1.7 -9.87,-3.7 -19.81,-7.4 -29.61,-11.3 -3.3,-1.2 -6.61,-2.3 -9.9,-3.6 -11.13,-4.1 -21.61,-8.8 -31.89,-13.7 -12.62,-5.3 -25.3,-10.5 -37.76,-16 l -2.8,-1.2 c -18.98,-7.7 -37.98,-16.6 -56.39,-26.1 -1.83,-0.9 -3.65,-1.8 -5.49,-2.8 -3.46,-1.6 -6.86,-3.4 -10.31,-5.1 -1.86,-1 -3.72,-1.9 -5.57,-2.8 -90.84,18.4 -195.32,3.5 -286.16,-23.2 -853.13,-253.5 -1321.56,-967.7 -1559.05,-1776.9 -130.6,-446.4 -197.69,-917.8 -214.33,-1386.9 377.01,-321.7 779.54,-613.8 1204.61,-873.3 14.85,-8.9 29.7,-18.3 45.14,-26.7 63.5,-39.1 127.62,-77.2 192.94,-114 9.15,-5.2 18.52,-10.1 27.69,-15.3 31.78,-18.1 63.99,-35.4 96,-53.1 61.95,-34.3 124.24,-67.9 187.04,-100.8 32.24,-16.8 64.6,-33.5 97.07,-49.9 65.15,-33.1 130.8,-65.3 196.83,-96.8 29.85,-14.3 59.53,-28.9 89.57,-42.8 94.72,-44.1 190.08,-87.1 286.57,-128.1 214.93,-91.5 434.01,-175.2 657.22,-249.9 v -0.6 c 32.67,-11.3 65.32,-22 97.98,-32.1 32.64,-10.7 65.29,-21.4 97.95,-31.5 32.65,-10.6 65.32,-20.8 97.96,-30.3 33.25,-10.6 66.51,-20.7 100.34,-30.2 64.7,-19 130.01,-36.9 195.91,-54 775.37,-207.3 1589.9,-317.701 2430.6,-317.701 912.5,0 1794.1,130.001 2628.3,372.301 68.2,19.6 135.9,40.4 203,61.1 28.5,8.9 57,18.4 85.5,27.9 28.5,8.9 57,18.4 84.9,27.9 293.9,98.6 580.6,211.4 860.3,337.8 48,21.4 95.5,43.4 143.1,65.9 5.1,2.5 10.3,5.1 15.5,7.6 26.3,12.5 52.6,25.2 78.9,38.1 63.2,30.4 125.8,62 188.3,93.9 17,8.7 34.1,17.3 51.1,26.2 65.7,34.1 131.1,68.8 195.7,104.4 v 0.6 l 9.5,5.3 c 496.3,274.3 965.4,591.9 1401.7,948.2 -74.2,575.2 -222.6,1152.9 -463.6,1678.9"
         style="fill:#a98fcf;fill-opacity:1;fill-rule:nonzero;stroke:none"
         id="path14" />
      <path
         d="m 15904.4,4723.8 c -316.5,689.3 -806.9,1274.1 -1542.5,1479.5 l -2.9,0.6 c -11.9,8.9 -23.2,17.8 -34.5,26.7 -11.8,8.9 -23.7,17.2 -35.6,25.5 -14.8,10.1 -30.3,20.2 -45.7,29.7 -7.7,5.3 -15.4,10.1 -23.2,14.8 -6.5,4.2 -13,7.8 -19.5,11.3 -9.5,5.4 -19,10.7 -28.5,16.1 -15.8,8.3 -31.8,16.7 -47.8,25 -9.2,4.7 -18.5,9.3 -27.8,13.9 -30.3,14.9 -61,29.3 -92.3,42.7 -3.7,1.6 -7.5,3.2 -11.2,4.7 -32,13.5 -64.6,26.1 -97.5,38.2 -17.7,6.4 -35.6,12.4 -53.5,18.5 -26.4,9 -52.6,18.1 -79.5,26.4 -239.3,73 -495.7,117.5 -750.4,157.9 l -0.1,-0.1 v 0.1 c -126.5,19.6 -253.5,38.6 -376.9,60 -175.8,30.3 -357.4,73.6 -532,133 -39.8,-70.1 -83.7,-137.8 -136.5,-202.5 -193.6,-236.3 -434,-433.4 -703,-578.2 -308.7,-165.7 -656,-262.5 -1006.9,-264.8 -411.39,-3 -830.54,115.7 -1149.95,374 -239.85,193.6 -417.95,470.2 -482.68,769.4 -243.4,-111.6 -517.68,-186.4 -778.32,-230.9 -219.67,-37.4 -447.64,-68.9 -670.88,-111 -0.04,0 -0.06,0 -0.1,-0.1 -99.7,-18.4 -198.22,-38.5 -294.38,-63.5 -26.33,-6.6 -52.48,-13.6 -78.48,-20.8 -15.23,-4.2 -30.28,-8.8 -45.37,-13.2 -7.18,-2.1 -14.38,-4.2 -21.53,-6.4 -12.74,-3.8 -25.45,-7.7 -38.09,-11.7 -18.66,-6 -37.2,-12.1 -55.61,-18.4 -19.43,-6.7 -38.58,-13.7 -57.72,-20.8 -4.48,-1.7 -8.99,-3.3 -13.45,-5 -9.87,-3.7 -19.81,-7.4 -29.61,-11.3 -14.06,-5.5 -27.9,-11.4 -41.79,-17.3 -12.62,-5.3 -25.3,-10.5 -37.76,-16 -21.79,-9.7 -43.39,-19.6 -64.68,-30.1 -3.46,-1.6 -6.86,-3.4 -10.31,-5.1 -1.86,-1 -3.72,-1.9 -5.57,-2.8 -90.84,18.4 -195.32,3.5 -286.16,-23.2 -853.13,-253.5 -1321.56,-967.7 -1559.05,-1776.9 -130.6,-446.4 -197.69,-917.8 -214.33,-1386.9 377.01,-321.7 779.54,-613.8 1204.61,-873.3 14.85,-8.9 29.7,-18.3 45.14,-26.7 63.5,-39.1 127.62,-77.2 192.94,-114 9.15,-5.2 18.52,-10.1 27.69,-15.3 31.78,-18.1 63.99,-35.4 96,-53.1 61.95,-34.3 124.24,-67.9 187.04,-100.8 32.24,-16.8 64.6,-33.5 97.07,-49.9 65.15,-33.1 130.8,-65.3 196.83,-96.8 29.85,-14.3 59.53,-28.9 89.57,-42.8 94.72,-44.1 190.08,-87.1 286.57,-128.1 214.93,-91.5 434.01,-175.2 657.22,-249.9 32.67,-11.3 65.32,-22 97.98,-32.7 32.64,-10.7 65.29,-21.4 97.95,-31.5 32.65,-10.6 65.32,-20.8 97.96,-30.3 33.25,-10.6 66.51,-20.7 100.34,-30.2 64.7,-19 130.01,-36.9 195.91,-54 775.37,-207.3 1589.9,-317.701 2430.6,-317.701 912.5,0 1794.1,130.001 2628.3,372.301 68.2,19.6 135.9,40.4 203,61.1 28.5,8.9 57,18.4 85.5,27.9 27.9,9.5 56.4,19 84.9,28.5 v -0.6 c 293.9,98.6 580.6,211.4 860.3,337.8 48,21.4 95.5,43.4 143.1,65.9 5.1,2.5 10.3,5.1 15.5,7.6 26.3,12.5 52.6,25.2 78.9,38.1 63.2,30.4 125.8,62 188.3,93.9 17,8.7 34.1,17.3 51.1,26.2 65.7,34.1 131.1,68.8 195.7,104.4 v 0.6 l 9.5,5.3 c 496.3,274.3 965.4,591.9 1401.7,948.2 -74.2,575.2 -222.6,1152.9 -463.6,1678.9"
         style="fill:#2a4977;fill-opacity:1;fill-rule:nonzero;stroke:none"
         id="path16" />
      <path
         d="m 14737.5,15543 c -188.5,549.6 -562.7,1091.3 -1106.7,1264.6 -167.2,130.9 -361.4,229.9 -571.3,253.7 -22.6,2.5 -45.5,3.7 -68.3,4.3 -37.7,112.4 -86.8,227.9 -146.2,341.9 v 0.6 c -286.1,548.6 -802,1059.1 -1347.1,995.6 -299.8,-35 -555.6,-239.3 -851.9,-297.4 -320.6,-63 -646.54,51 -971.87,86 -793.77,84.4 -1617.81,-356.8 -1987.69,-1063.9 -140.71,-268.3 -217.89,-564.6 -301.6,-856.1 -143.67,-499.3 -309.31,-996.2 -567.56,-1446.8 -257.67,-450.6 -614.48,-855.5 -1070.43,-1104.3 52.84,-65.3 110.43,-125.2 172.18,-181.1 307.7,-277.5 717.32,-433.7 1138.51,-481.1 7.06,-132.5 33.92,-267.9 74.59,-397.6 52.65,-20.9 104.08,-46.2 153.82,-76.6 76.42,-46.6 149.11,-103.7 217.5,-168 -10.36,206.9 -17.84,418.1 -20.68,631.1 627.41,36.7 1225.83,277.8 1790.01,556.4 468.44,230.3 930.32,493.9 1295.42,867.3 174.2,178.1 329,383 509.9,551.8 30.4,-379.6 -22.6,-758.8 -168.6,-1112.8 -90.2,-218.7 -213.2,-424.2 -365.7,-605.2 153.6,-42.6 316.9,-33.9 474.4,-9.6 360,55.4 710.4,193.4 994.9,420.8 33.1,26.4 65.1,54.2 96.2,83 0.8,-1.6 1.6,-3.2 2.4,-4.8 166.3,-334.4 297.9,-690 342.9,-1060.7 45,-370.6 -0.7,-758.3 -172.5,-1089.8 179,-8.9 347.3,81 497.3,179.1 402.5,262.9 747.9,608.6 1018.8,1005.5 115.7,83.1 240.6,152.2 376.7,201.5 130.2,47.2 277.9,74.2 405,19 86.4,-37.6 149.3,-106.8 196.3,-189.1 221.5,890.3 256.4,1822.3 -38.7,2682.7"
         style="fill:#283272;fill-opacity:1;fill-rule:nonzero;stroke:none"
         id="path18" />
      <path
         d="m 12635,6715.3 c -175.8,30.3 -357.4,73.6 -532,133 -39.8,-70.1 -83.7,-137.8 -136.5,-202.5 -193.6,-236.3 -434,-433.4 -703,-578.2 -308.7,-165.7 -656,-262.5 -1006.9,-264.8 -411.39,-3 -830.54,115.7 -1149.95,374 -239.85,193.6 -417.95,470.2 -482.68,769.4 -243.4,-111.6 -517.68,-186.4 -778.32,-230.9 -219.67,-37.4 -447.64,-68.9 -670.88,-111 9.64,-87.8 23.19,-175.3 39.72,-262.4 3.35,-17.5 6.29,-35.2 10.07,-52.5 1.42,-6.9 3.02,-13.7 4.48,-20.5 12,-56.5 25.39,-112.7 40.23,-168.6 1.58,-5.8 2.94,-11.7 4.55,-17.5 1.27,-5.1 2.95,-10.1 4.28,-15.1 45.47,-164.7 103.03,-326 172.3,-481.4 0.84,-1.9 1.68,-3.7 2.5,-5.6 13.33,-29.7 27.1,-59.2 41.27,-88.5 1.11,-2.3 2.14,-4.6 3.25,-6.9 12.53,-25.7 25.56,-51.2 38.73,-76.6 2.67,-5 5.04,-10.2 7.8,-15.2 l 0.18,-0.5 c 32.23,-61.3 66.38,-121.4 102.33,-180.2 1.93,-3.2 3.91,-6.3 5.84,-9.4 9.56,-15.5 19.48,-30.7 29.28,-46 21.63,-34.2 43.77,-67.7 67.19,-100.5 12.4,-18 24.84,-35.5 37.72,-53 3.69,-5 7.39,-10 11.09,-15 10.2,-14.1 20.49,-28.2 31.38,-42.3 16.04,-20.9 32.46,-41.4 48.99,-61.8 8.64,-10.7 17.26,-21.2 25.9,-31.5 2.34,-2.8 4.75,-5.5 7.11,-8.3 28.69,-34.6 58.42,-68.5 89.1,-101 3.71,-4.1 7.35,-8.1 11.07,-12.1 10.66,-11.4 21.4,-22.7 32.1,-33.8 13.44,-13.8 27,-27.6 40.72,-41.1 5.49,-5.5 10.45,-10.9 16.29,-16.3 10.22,-10.3 21.1,-20.1 31.77,-30 8,-7.5 16,-15.1 24.09,-22.5 10.07,-9.3 20.33,-18.6 30.62,-27.9 13.63,-12.2 27.51,-24 41.38,-35.9 24.1,-20.4 48.47,-40.7 73.2,-60.1 6.02,-4.8 11.94,-9.7 18,-14.4 12.9,-10 25.67,-19.7 38.52,-29.2 11.15,-8.3 22.38,-16.5 33.67,-24.7 10.22,-7.4 20.4,-14.9 30.85,-22.2 23.47,-16.4 47.26,-32.4 71.3,-47.9 6.4,-4.2 12.82,-8.2 19.17,-12.2 18.16,-11.5 36.55,-22.7 55.01,-33.7 12.61,-7.6 25.18,-15 38.24,-22.2 12.92,-8 26.26,-14.9 39.51,-22.1 8.07,-4.4 16.01,-9 24.15,-13.3 20.19,-11 40.88,-21.4 61.64,-31.1 17.71,-9.2 35.98,-17.8 54.24,-26.4 14.31,-6.6 28.85,-12.8 43.33,-19.1 10.64,-4.6 20.96,-9.6 31.85,-13.9 11.18,-4.8 22.37,-9.2 33.57,-13.6 18.78,-7.5 37.58,-15 56.64,-22.1 11.64,-4.2 23.31,-8.4 35.02,-12.4 10.19,-3.6 20.5,-7 30.77,-10.4 15.19,-5.1 30.3,-10.3 45.85,-15.1 904.19,-282 1924.77,17.8 2652.57,623.9 13.2,10.9 25.6,22.2 38.4,33.2 21.4,18.4 42.9,36.9 63.5,55.6 15.1,13.7 29.8,27.6 44.5,41.4 24.8,23.3 49.3,46.7 72.9,70.5 6,6 12.2,11.9 18.1,18 30.3,30.9 59.5,62.2 88.1,93.8 9.4,10.4 18.6,20.9 27.8,31.4 19.1,21.6 37.6,43.4 55.9,65.3 8.3,9.9 16.7,19.7 24.8,29.6 31.5,38 61.2,76.5 90.9,115.8 6,8 11.6,16.1 17.5,24.2 19.7,26.6 39,53.4 57.8,80.3 8.9,12.9 17.6,25.8 26.4,38.7 18.4,27.1 36.6,54.4 54.3,82 5.3,8.1 10.6,16.2 15.7,24.3 49,77.1 95.4,155.4 139.9,234.9 1,1.8 2.1,3.6 3,5.4 38.5,68.8 75.3,138.7 111.5,209.3 4.6,8.9 9.3,17.8 13.9,26.8 34.7,68.3 68.7,137.3 102.3,207 5.1,10.6 10.2,21.2 15.3,31.9 35.4,73.7 70.6,148.1 105.8,223.1 35.8,76.3 71.7,153.1 108.4,230.5 v 0.1 c -126.5,19.6 -253.5,38.6 -376.9,60"
         style="fill:#f7f9fd;fill-opacity:1;fill-rule:nonzero;stroke:none"
         id="path20" />
      <path
         d="m 14124.2,6353 c -9.2,4.7 -18.5,9.3 -27.8,13.9 -30.3,14.9 -61,29.3 -92.3,42.7 -3.7,1.6 -7.5,3.2 -11.2,4.7 -32,13.5 -64.6,26.1 -97.5,38.2 -17.7,6.4 -35.6,12.4 -53.5,18.5 -26.4,9 -52.6,18.1 -79.5,26.4 -239.3,73 -495.7,117.5 -750.4,157.9 l -0.1,-0.1 c -36.7,-77.4 -72.6,-154.2 -108.4,-230.5 -35.2,-75 -70.4,-149.4 -105.8,-223.1 -5.1,-10.7 -10.2,-21.3 -15.3,-31.9 -33.6,-69.7 -67.6,-138.7 -102.3,-207 -4.6,-9 -9.3,-17.9 -13.9,-26.8 -37.1,-72.4 -75,-144.1 -114.5,-214.7 -44.5,-79.5 -90.9,-157.8 -139.9,-234.9 -5.1,-8.1 -10.4,-16.2 -15.7,-24.3 -17.7,-27.6 -35.9,-54.9 -54.3,-82 -8.8,-12.9 -17.5,-25.8 -26.4,-38.7 -18.8,-26.9 -38.1,-53.7 -57.8,-80.3 -42.2,-57.5 -86.7,-114 -133.2,-169.6 -18.3,-21.9 -36.8,-43.7 -55.9,-65.3 -9.2,-10.5 -18.4,-21 -27.8,-31.4 -28.6,-31.6 -57.8,-62.9 -88.1,-93.8 -5.9,-6.1 -12.1,-12 -18.1,-18 -23.6,-23.8 -48.1,-47.2 -72.9,-70.5 -14.7,-13.9 -29.4,-27.7 -44.5,-41.4 -20.6,-18.7 -42.1,-37.2 -63.5,-55.6 -12.9,-11.1 -25,-22.5 -38.3,-33.5 -727.8,-606.2 -1748.39,-906 -2652.59,-624 -15.48,4.8 -30.61,10.4 -45.93,15.5 -10.27,3.4 -20.58,6.8 -30.77,10.4 -11.69,4.1 -23.42,8.1 -35.02,12.4 -19.06,7.1 -37.86,14.6 -56.64,22.1 -22,8.8 -43.77,18 -65.42,27.5 -14.48,6.3 -29.02,12.5 -43.33,19.1 -39.23,18.2 -77.88,37.3 -115.88,57.5 -8.14,4.3 -16.08,8.9 -24.15,13.3 -26.2,14.3 -52.14,29 -77.75,44.3 -18.46,11 -36.85,22.2 -55.01,33.7 -6.39,4 -12.81,8 -19.17,12.2 -24.04,15.5 -47.83,31.5 -71.3,47.9 -10.4,7.2 -20.57,14.8 -30.85,22.2 -11.29,8.2 -22.52,16.4 -33.67,24.7 -12.91,9.7 -25.8,19.3 -38.52,29.2 -6.06,4.7 -11.98,9.6 -18,14.4 -24.75,19.6 -49.17,39.6 -73.2,60.1 -13.87,11.9 -27.75,23.7 -41.38,35.9 -10.31,9.2 -20.46,18.5 -30.62,27.9 -8.09,7.4 -16.09,15 -24.09,22.5 -16.17,15.3 -32.25,30.6 -48.06,46.3 -13.72,13.5 -27.28,27.3 -40.72,41.1 -10.79,11.2 -21.48,22.4 -32.1,33.8 -3.72,4 -7.36,8 -11.07,12.1 -30.44,32.9 -60.16,66.5 -89.1,101 -2.36,2.8 -4.77,5.5 -7.11,8.3 -8.69,10.4 -17.33,20.9 -25.9,31.5 -16.53,20.4 -32.95,40.9 -48.99,61.8 -10.66,13.9 -20.94,28.2 -31.38,42.3 -3.7,5 -7.4,10 -11.09,15 -36.43,50 -71.4,101.2 -104.91,153.5 -9.8,15.3 -19.72,30.5 -29.28,46 -1.93,3.1 -3.91,6.2 -5.84,9.4 -35.95,58.8 -70.1,118.9 -102.33,180.2 -2.74,5.2 -5.26,10.5 -7.98,15.7 -13.17,25.4 -26.2,50.9 -38.73,76.6 -1.1,2.3 -2.16,4.6 -3.25,6.9 -14.17,29.3 -27.94,58.8 -41.27,88.5 -0.84,1.9 -1.65,3.7 -2.5,5.6 -69.27,155.4 -126.83,316.7 -172.3,481.4 -3,10.9 -5.93,21.7 -8.83,32.6 -14.84,55.9 -28.23,112.1 -40.23,168.6 -5.16,24.3 -9.91,48.6 -14.55,73 -16.53,87.1 -30.08,174.6 -39.72,262.4 -0.04,0 -0.06,0 -0.1,-0.1 -99.7,-18.4 -198.22,-38.5 -294.38,-63.5 -26.33,-6.6 -52.48,-13.6 -78.48,-20.8 -15.23,-4.2 -30.28,-8.8 -45.37,-13.2 -7.18,-2.1 -14.38,-4.2 -21.53,-6.4 -12.74,-3.8 -25.45,-7.7 -38.09,-11.7 -18.66,-6 -37.2,-12.1 -55.61,-18.4 -19.43,-6.7 -38.58,-13.7 -57.72,-20.8 -4.48,-1.7 -8.99,-3.3 -13.45,-5 -9.87,-3.7 -19.81,-7.4 -29.61,-11.3 -14.06,-5.5 -27.9,-11.4 -41.79,-17.3 -12.62,-5.3 -25.3,-10.5 -37.76,-16 -21.79,-9.7 -43.39,-19.6 -64.68,-30.1 -3.46,-1.6 -6.86,-3.4 -10.31,-5.1 -48.14,-24 -95.02,-49.8 -140.26,-78 24.95,-266.5 89.06,-530.8 139.55,-736.2 141.86,-577.6 319.38,-1155.3 638.79,-1657 449.44,-705.8 1190.36,-1233.6 2016.18,-1364.8 307.55,-49.3 621.02,-44.6 931.52,-18.5 747.43,63 1497.33,257.1 2127.23,665 340.1,219.6 639.4,496.9 911.3,797.3 594.3,656.6 1066.8,1464.7 1209.9,2327.9 -31.2,18.7 -63.4,36 -95.9,52.7"
         style="fill:#193353;fill-opacity:1;fill-rule:nonzero;stroke:none"
         id="path22" />
      <path
         d="m 6627.07,5254.6 c 83.7,29.6 157.59,103.6 222.46,162.3 75.88,68.7 151.25,135.3 225.19,206.1 40.19,38.5 -1.18,122.5 -57.77,99.3 -102.57,-42.3 -183.91,-90.9 -268.15,-163.2 -72.01,-61.9 -160.36,-151 -178.79,-247.5 -6.08,-31.9 21.03,-69.8 57.06,-57"
         style="fill:#3e6395;fill-opacity:1;fill-rule:nonzero;stroke:none"
         id="path24" />
      <path
         d="m 7012.53,4622.8 c 11.66,-31.3 45.06,-48.8 76.3,-31.1 66.15,37.6 117.72,116.3 155.36,180.7 44.2,75.6 83.93,151.1 125.21,228.2 32.21,60.1 -34.13,134.7 -96.46,96.5 -90.11,-55.3 -151.72,-115.1 -209.11,-204.1 -46.7,-72.4 -82.66,-186.2 -51.3,-270.2"
         style="fill:#3e6395;fill-opacity:1;fill-rule:nonzero;stroke:none"
         id="path26" />
      <path
         d="m 7642.73,3792.8 c 14.15,-41.1 71.47,-52.8 94.94,-12.4 86.86,149.6 140.09,315.7 196.41,478.5 29.33,84.8 -92.73,155.8 -151.93,88.5 -133.48,-151.8 -207.68,-356.7 -139.42,-554.6"
         style="fill:#3e6395;fill-opacity:1;fill-rule:nonzero;stroke:none"
         id="path28" />
      <path
         d="m 8533.17,3876.1 c -95.94,-135.5 -155.94,-365.9 -30.98,-504.7 27.39,-30.4 71.29,-10.7 83.73,22.2 24.19,63.7 24.77,139.3 35.01,206.8 11,72.6 28.41,147.4 51.3,217.1 28.5,86.8 -91.99,125.1 -139.06,58.6"
         style="fill:#3e6395;fill-opacity:1;fill-rule:nonzero;stroke:none"
         id="path30" />
      <path
         d="m 9636.07,3061.1 c 26.9,-16.8 65.46,4.9 64.19,36.9 -6.62,169.4 -31.18,337.7 -17.83,508.7 6.58,84.4 -116.51,111.1 -155.58,42.2 -109.97,-194.3 -91.07,-462.8 109.22,-587.8"
         style="fill:#3e6395;fill-opacity:1;fill-rule:nonzero;stroke:none"
         id="path32" />
      <path
         d="m 10548.5,3257.8 c 28.9,-24.8 76,-24.3 96.2,12.4 46,83.8 38,157.9 25.1,250.1 -14.1,100.1 -27.6,184.7 -90.1,266 -40.7,53 -123.9,51.8 -145.8,-19 -29.4,-95.4 -17.9,-178.2 3.8,-275 20.6,-91.5 37,-171.1 110.8,-234.5"
         style="fill:#3e6395;fill-opacity:1;fill-rule:nonzero;stroke:none"
         id="path34" />
      <path
         d="m 11292.6,3744.8 c 25.4,-73.1 47.6,-131.4 108.6,-181 12.2,-9.9 32.7,-17 47.2,-6.1 84.4,63.7 93.7,162.8 57.4,258.8 -42,111.2 -100.7,188.8 -207.7,243 -68.8,34.7 -158.2,-38.7 -111.7,-111.7 39.1,-61.4 82.4,-134.3 106.2,-203"
         style="fill:#3e6395;fill-opacity:1;fill-rule:nonzero;stroke:none"
         id="path36" />
      <path
         d="m 11914.3,4324.3 c 52.4,-43.5 110.5,-96.6 152.5,-150.1 46.9,-59.6 81.9,-128 126.3,-189.4 62.5,-86.4 176.8,-49.7 190.4,51.6 15.2,114.3 -40.2,225 -116,307.1 -81.3,87.9 -169,128 -286.2,142.3 -79.8,9.7 -127.3,-111.4 -67,-161.5"
         style="fill:#3e6395;fill-opacity:1;fill-rule:nonzero;stroke:none"
         id="path38" />
      <path
         d="m 12484.8,5011 c 33.3,-87.2 132.5,-154.2 202.3,-214.6 65.6,-56.7 124.5,-141.1 216,-152.2 25.4,-3.1 43.4,19.3 51.9,39.5 39.2,93.3 -45.8,206.5 -98.7,275.7 -58.4,76.4 -172.7,183.5 -274.9,178.5 -59.2,-3 -121.1,-62.6 -96.6,-126.9"
         style="fill:#3e6395;fill-opacity:1;fill-rule:nonzero;stroke:none"
         id="path40" />
      <path
         d="m 12967,5793.3 c 71.7,-64.4 144,-126.8 213.3,-193.8 67.6,-65.3 117.9,-144 183.1,-209.9 31.7,-32.1 100.3,-20.9 108.5,28.6 41,244.9 -167.4,503.4 -400.2,554.9 -98.5,21.8 -189.4,-103.9 -104.7,-179.8"
         style="fill:#3e6395;fill-opacity:1;fill-rule:nonzero;stroke:none"
         id="path42" />
      <path
         d="m 9018.19,7187.9 c 61.16,-22.6 119.94,-41 172.78,-56.4 409.03,-119.4 853.73,-119.4 1260.43,8.3 264.1,83.1 510.4,218.4 723.5,394 l 0.2,0.2 c -33.3,65.9 -58.2,135.9 -74.2,210.7 -0.7,3.1 -1.1,6.1 -1.7,9.2 -3.4,17.1 -6.3,34.4 -8.9,51.8 -2.8,19.2 -5.3,38.4 -7.4,57.8 -0.8,7.6 -1.6,15.2 -2.3,22.8 -0.4,3.3 -0.7,6.6 -1,9.9 -1.4,15.3 -2.8,30.6 -4.1,46 -27.2,-10.6 -54.1,-21.6 -81.9,-31.3 -495.4,-173.8 -1084.95,-274.7 -1625.71,-186.8 -4.63,-19.9 -9.35,-39.7 -15.23,-58.9 -0.91,-3 -1.93,-5.9 -2.87,-8.8 -3.64,-11.4 -8.17,-22.4 -12.25,-33.6 -6.13,-16.8 -12.28,-33.7 -19.39,-50 -7.37,-16.9 -15.39,-33.5 -23.77,-49.9 -5.02,-9.8 -10.21,-19.6 -15.6,-29.2 -7.64,-13.7 -15.66,-27.1 -23.98,-40.4 -4.8,-7.6 -9.4,-15.4 -14.42,-22.9 -2.6,-3.9 -5.56,-7.6 -8.21,-11.5 -14.07,-20.4 -28.74,-40.5 -44.39,-60 -1.31,-1.6 -2.75,-3.2 -4.07,-4.8 -20.93,-25.7 -43.33,-50.5 -66.81,-74.6 -4.44,-4.5 -8.86,-9.1 -13.38,-13.6 -27.15,-26.9 -55.26,-53.2 -85.33,-78"
         style="fill:#8467ba;fill-opacity:1;fill-rule:nonzero;stroke:none"
         id="path44" />
      <path
         d="m 7572.97,11396.4 c -25.35,318.4 -51.61,663 -69.52,1020.4 -68.39,64.3 -141.08,121.4 -217.5,168 -49.74,30.4 -101.17,55.7 -153.82,76.6 -126.77,50.1 -261.24,71.1 -401.05,50.4 -240.68,-35.6 -458.21,-196.9 -558.84,-414.4 -238.78,-516 160.6,-1131.7 540.87,-1472.8 238.82,-214.2 597.23,-387.3 919.39,-305.2 -24.51,314.8 -38.77,616 -59.53,877"
         style="fill:#8467ba;fill-opacity:1;fill-rule:nonzero;stroke:none"
         id="path46" />
      <path
         d="m 12930.4,10267.3 c -79.6,-266.3 -172.7,-525.2 -283.3,-771.5 -34.7,-77.3 -72.4,-152.3 -112.1,-226 57.5,24.2 109,51.2 148.8,77.4 383,252 705.3,679.2 967.7,1048.3 4.3,6 8.2,12.2 12.5,18.2 -257.4,-140.1 -525.9,-223.7 -733.6,-146.4"
         style="fill:#283272;fill-opacity:1;fill-rule:nonzero;stroke:none"
         id="path48" />
      <path
         d="m 13040.9,11264.3 c -15.1,-84.2 -30.4,-181.6 18.4,-256.4 11.3,-17.2 38.7,-24.5 54,-6.9 53.3,61.7 64.4,142.6 85.7,219.7 22.1,79.5 47.5,157.4 82.9,232 71.8,151.3 169.1,293.1 289.2,410 8.7,8.6 17.8,16.7 26.8,25 13.7,5.1 27.7,9.4 42.4,11.6 49.2,7.3 105.8,-3.1 148.2,-23.1 106,-50.1 169,-168 203.9,-274.7 38.2,-116.7 61.9,-277.1 -49.1,-363.4 -34.3,-26.7 -78.9,-38.6 -119.7,-22.2 -48.4,19.4 -69.1,67.1 -97.9,105.7 -22.4,29.9 -59.4,30.3 -81.7,0 -43.1,-58.5 -14.8,-136.8 30.5,-186.1 46.3,-50.5 113.6,-81.8 181.8,-86.2 148.1,-9.8 269.7,110.3 316.4,241.1 55,154.4 10,334.1 -54.8,478.2 -57.9,128.7 -162.8,242.6 -299.4,286.8 54,33.1 110.3,62.4 168.3,87.3 79.9,34.4 164.2,60.4 249,79.2 81.6,18.1 178.5,14.3 253.7,49.8 58.5,27.7 30.8,102.5 -15.9,122.1 -80.7,33.9 -199.7,6.6 -283.1,-7.4 -93.8,-15.8 -185.6,-41.7 -274,-76.7 -179.9,-71.2 -345.9,-172.1 -483.7,-308.7 -135.7,-134.5 -239.6,-293.1 -311.7,-469.7 -35,-85.8 -63.8,-175.7 -80.2,-267"
         style="fill:#8467ba;fill-opacity:1;fill-rule:nonzero;stroke:none"
         id="path50" />
      <path
         d="m 9770.09,8943.7 c 181.19,-8.9 366.81,8.4 543.11,51.5 173.6,42.4 343.1,109.6 499.1,196.8 75.8,42.4 148.1,90.4 217.1,143.2 71.2,54.4 179.7,124.3 218.4,207.5 57,122.2 -58.7,243.9 -183,183 -73.1,-35.9 -131.8,-116.3 -196.2,-167 -58.7,-46.4 -121.9,-87.7 -186.6,-125.4 -138,-80.4 -285.3,-140 -440,-179.9 -152,-39.1 -305.49,-60.4 -462.62,-59.2 -77.9,0.6 -156.67,4.9 -233.92,15.3 -89.45,12.2 -177.98,51.6 -264.58,15 -46.9,-19.9 -62.17,-94.8 -35.27,-134.6 53.15,-78.5 164.94,-93.2 252.63,-111.3 89.47,-18.4 180.59,-30.4 271.85,-34.9"
         style="fill:#121022;fill-opacity:1;fill-rule:nonzero;stroke:none"
         id="path52" />
      <path
         d="m 10008.4,10142.2 c 40.7,76.1 -26.13,146.5 -103.67,134.8 -149.67,-22.6 -425.43,-126.4 -527.02,31.4 -72.35,112.4 -18.44,316.4 5.24,434.3 32.27,160.6 60.39,321.2 91.26,482.1 41.26,214.9 127.74,439.8 89.69,658.1 -11.2,64.2 -97.01,61.3 -127.65,16.6 -175.37,-255.7 -190.89,-670.5 -274.3,-969.5 -53.49,-191.6 -116.64,-393.6 -95.03,-594.8 49.57,-461.8 717.04,-612.4 941.48,-193"
         style="fill:#8467ba;fill-opacity:1;fill-rule:nonzero;stroke:none"
         id="path54" />
      <path
         d="m 11471.3,12313.4 c -150.2,10.4 -299.3,-3.1 -445.5,-38.5 -288.4,-69.9 -576.8,-231.5 -774,-455.6 -69.8,-79.4 35.7,-184 115.5,-115.5 105.6,90.8 214,175.5 339.9,236.8 114.8,56 237.7,100.5 362,130.4 -64.6,-70.4 -104.6,-167.4 -104.6,-274.6 0,-215.1 161,-389.5 359.7,-389.5 198.6,0 359.7,174.4 359.7,389.5 0,133.2 -61.8,250.7 -156,320.9 49.3,-1.1 98.6,-3 147.6,-8.1 58.6,-6.1 135.9,-32.9 188.8,2.6 24.1,16.3 28.8,41.5 17.6,67.3 -27.2,63.4 -124.1,81 -183.9,96.4 -74.4,19.2 -150.1,32.5 -226.8,37.9"
         style="fill:#121022;fill-opacity:1;fill-rule:nonzero;stroke:none"
         id="path56" />
      <path
         d="m 8886.82,11926.5 c -47.77,41.2 -99.42,81.2 -154.45,112.3 -107.72,61 -231.23,98.6 -353.37,115.5 -251.73,34.9 -507.45,-32.9 -712.22,-182.5 -76.48,-55.9 -6.65,-183.6 75.83,-129.8 181,117.9 398.05,167.8 612.35,141.5 -140.37,-53.1 -241.25,-197.4 -241.25,-367.5 0,-215.1 161.06,-389.5 359.69,-389.5 198.66,0 359.71,174.4 359.71,389.5 0,77.4 -21.08,149.3 -56.97,209.9 24.98,-16.6 49.5,-33.9 74.78,-50.8 31.37,-20.9 95.49,-36.7 112.47,11.2 21.39,60.3 -36.45,105.6 -76.57,140.2"
         style="fill:#121022;fill-opacity:1;fill-rule:nonzero;stroke:none"
         id="path58" />
      <path
         d="m 10339.4,12223.5 c 222.2,116.9 420.3,236.2 669.9,291.1 176.2,38.8 357,51.5 535.7,76.4 38.7,5.4 78.6,11.9 110.9,33.8 32.3,21.8 54.5,63.6 41.6,100.4 -7.1,20.6 -23.8,36.4 -40.8,50.2 -178.1,144.5 -431.5,147.8 -658.2,112.5 -302.2,-47.1 -606.6,-157.9 -817,-380 -155.3,-164 -76.5,-407.7 157.9,-284.4"
         style="fill:#283272;fill-opacity:1;fill-rule:nonzero;stroke:none"
         id="path60" />
      <path
         d="m 7650.6,12598.2 c 32.28,-21.9 72.23,-28.4 110.84,-33.8 178.74,-24.9 359.51,-37.6 535.76,-76.4 249.58,-54.9 447.7,-174.2 669.91,-291.1 234.33,-123.3 313.18,120.5 157.86,284.4 -210.38,222.1 -514.76,332.9 -817,380 -226.68,35.3 -480.08,32 -658.19,-112.5 -16.96,-13.8 -33.63,-29.6 -40.82,-50.2 -12.83,-36.8 9.36,-78.6 41.64,-100.4"
         style="fill:#283272;fill-opacity:1;fill-rule:nonzero;stroke:none"
         id="path62" />
      <path
         d="m 7127.66,12064.7 c -85.74,75.1 -182.81,133.4 -288.49,175.8 -51.93,20.8 -105.6,37.1 -160.43,48.4 -61.32,12.6 -122.2,23.4 -177,-11.5 -19.84,-12.6 -30.12,-47.2 -8.28,-64.2 22.89,-17.9 38.87,-29.3 67.94,-36.3 22.53,-5.4 45.74,-8.5 68.52,-12.6 50.5,-9.1 100.22,-22.2 148.55,-39.4 56.43,-20.1 110.84,-47.2 162.11,-79.1 -100.83,-56.3 -173.05,-167.5 -198.85,-278.2 -18.59,-79.7 -15.88,-164.1 9.07,-242.1 24.21,-75.7 65.69,-165.9 149.72,-186 26.47,-6.3 47.6,16.4 42.23,42.3 -13.2,63.8 -57.31,113.4 -76.17,175.6 -17.88,59 -23.19,123.1 -9.45,183.5 23.65,104.1 93.23,176.4 170.58,242.3 5.17,-4.3 10.77,-8.1 15.83,-12.5 76.36,-66.5 140.63,-145.1 189.64,-233.7 50.5,-91.3 67.39,-191.3 108.38,-285.6 20,-46.1 79.25,-15.4 83.78,22.7 12.77,107.5 -41.27,229.3 -89.58,322.8 -51.93,100.6 -122.92,193.2 -208.1,267.8"
         style="fill:#6b56a4;fill-opacity:1;fill-rule:nonzero;stroke:none"
         id="path64" />
      <path
         d="m 8204.73,15191.8 c 235.09,544.4 319.41,1167.2 687.5,1632.1 393.62,496.3 1096.56,723.1 1705.67,550.3 198.3,-55.8 408.5,-150.8 601.4,-77.7 138.9,52.8 232.2,181.6 350.3,272.5 248.8,191.7 603.2,203 898.3,94.9 84.9,-30.8 233.3,-146 397.1,-255.8 -286.1,548.6 -802,1059.1 -1347.1,995.6 -299.8,-35 -555.6,-239.3 -851.9,-297.4 -320.6,-63 -646.54,51 -971.87,86 -793.77,84.4 -1617.81,-356.8 -1987.69,-1063.9 -140.71,-268.3 -217.89,-564.6 -301.6,-856.1 -143.67,-499.3 -309.31,-996.2 -567.56,-1446.8 -257.67,-450.6 -614.48,-855.5 -1070.43,-1104.3 52.84,-65.3 110.43,-125.2 172.18,-181.1 219.66,6 438.12,42.8 646.53,110.5 735.58,238.6 1332.22,831.8 1639.17,1541.2"
         style="fill:#3b499c;fill-opacity:1;fill-rule:nonzero;stroke:none"
         id="path66" />
      <path
         d="m 14380,15466.1 c -63.2,126.6 -137.1,248 -221.9,361.3 -67.8,90.8 -225,198.2 -265.7,296 208.7,-504.3 246.1,-1077.9 104.5,-1605 -72,492 -386.3,942.5 -823.2,1180.1 345.6,-1014.9 229.4,-2177.2 -310.1,-3103.6 520.4,337 914.4,864.7 1089.7,1459.4 118,-251.2 143.5,-544.5 70.8,-812.3 195.8,248.3 311.6,558.8 326.1,874.7 96.7,-300.8 113.2,-616.4 65.1,-927.5 83.7,220.3 194.5,415 226.3,651.4 37.2,276.8 29.6,563.1 -13.9,838.6 -43,272.5 -124.5,539.8 -247.7,786.9"
         style="fill:#3b499c;fill-opacity:1;fill-rule:nonzero;stroke:none"
         id="path68" />
      <path
         d="m 9525.7,14781.3 c 325.8,337.6 463.26,828.2 807.8,1146.6 356.5,329.5 816.4,374.4 1267.5,469.1 -497.2,489.4 -1474.7,491.9 -1985.84,28.8 -434.02,-393.1 -476.71,-1060.6 -803.15,-1546.8 -135.06,-201.2 -319.17,-369.2 -531.81,-485.4 444.56,-90 930.52,61.3 1245.5,387.7"
         style="fill:#3b499c;fill-opacity:1;fill-rule:nonzero;stroke:none"
         id="path70" />
      <path
         d="m 14462.3,2786 c -23.8,307.5 24.3,710.1 -117,987.3 -16,31.5 -61.7,20.8 -71.2,-9.5 -49.9,-159.1 -13.1,-301.6 3.5,-465.5 21.4,-208.3 38.6,-417.9 57.6,-626.3 26.1,-285 46.9,-569.9 92.1,-851.4 5.1,2.5 10.3,5.1 15.5,7.6 26.3,12.5 52.6,25.2 78.9,38.1 -4.8,307 -35.7,613.9 -59.4,919.7"
         style="fill:#193353;fill-opacity:1;fill-rule:nonzero;stroke:none"
         id="path72" />
      <path
         d="m 5789.58,3033.6 c 18.99,217.2 48.69,433.4 87.89,648.3 30.25,164.4 49.86,200.6 -16.05,346.1 -17.2,38.6 -72.43,38.6 -99.14,13.1 -217.28,-209 -179.3,-726.1 -192.94,-1007.5 -11.9,-249.4 -19.59,-506.5 1.19,-758.8 63.5,-39.1 127.62,-77.2 192.94,-114 7.71,290.9 1.19,582.4 26.11,872.8"
         style="fill:#193353;fill-opacity:1;fill-rule:nonzero;stroke:none"
         id="path74" />
    </g>
  </g>
</svg>
